# xmcd
#
# Track frame offsets: 
#        183
#        16983
#        66708
#        85833
#        119058
#        144258
#
# Disc length: 2275 seconds
#
# Revision: 1
# Processed by: cddbd v1.5.1PL2 Copyright (c) Steve Scherf et al.
# Submitted via: ExactAudioCopy v0.95b4
#
DISCID=5308e106
DTITLE=Uncanny Alliance - I Got My Education
DYEAR=1992
DGENRE=Hip-Hop
TTITLE0=I Got My Education (7" Radio Mix)
TTITLE1=I Got My Education (Original Bootleg)
TTITLE2=I Got My Education (7" Bootleggers Radio Response)
TTITLE3=I Got My Education (Kenlou Mix)
TTITLE4=I Got My Education (Masters At Work Dub)
TTITLE5=I Got My Education (Extra Dub)
EXTD=
EXTT0=
EXTT1=
EXTT2=
EXTT3=
EXTT4=
EXTT5=
PLAYORDER=
